:SAMPLES-PER-SECOND 30
:FULLY-SPECIFIED
:DEGREES
693
root  -6.34152 34.5221 28.0452 -5.3475 82.5429 -13.895
LeftUpLeg  -18.5611 11.4162 15.3272
LeftLeg  32.2861 8.6769 4.699
LeftFoot  1.17557 -0.00212671 0.20729
LeftToes  -11.1579 2.60077e-006 -1.42232e-007
Spine  3.81992 1.18438 0.653314
Spine1  7.65895 2.3243 1.3906
RightShoulder  -0.00655136 7.01117 -0.788674
RightArm  49.9274 -26.0264 42.1159
RightForeArm  76.213 74.6433 40.2572
RightHand  -4.78341 10.9688 -46.674
LeftShoulder1  0.00463719 -4.40645 -4.72286
LeftArm  54.6311 24.0853 -37.8874
LeftForeArm  84.0492 -75.0919 -41.7337
LeftHand  -7.71883 -14.9702 54.0079
HEad  -17.5074 12.5977 -11.7281
RightUpLeg  -11.035 -17.1529 1.77565
RightLeg  6.98844 0.663647 0.0396921
RightFoot  3.78507 0.0108431 0.0362849
RightToes  -31.132 -0.151793 -0.259756
694
root  -6.56888 34.4636 27.7373 -18.3273 84.5294 -27.8632
LeftUpLeg  -16.0737 12.0037 16.7291
LeftLeg  28.3485 7.69171 3.51392
LeftFoot  2.89294 -0.010862 0.430151
LeftToes  -13.8851 2.60077e-006 -1.42232e-007
Spine  3.22232 1.06371 0.892018
Spine1  6.46337 2.07703 1.84708
RightShoulder  -0.00341939 6.17344 -0.650227
RightArm  49.9618 -26.543 41.545
RightForeArm  76.3192 74.8739 41.0465
RightHand  -4.70838 11.446 -44.2611
LeftShoulder1  0.00576951 -3.18588 -5.80459
LeftArm  55.0465 23.9106 -37.2671
LeftForeArm  83.791 -75.1476 -41.9401
LeftHand  -7.78789 -15.3639 53.2042
HEad  -16.5273 11.2538 -11.1577
RightUpLeg  -12.4024 -18.5899 2.54549
RightLeg  7.24099 0.017797 0.00249971
RightFoot  4.10135 0.0130774 -0.00558306
RightToes  -31.5773 -0.154932 -0.262777
695
root  -6.77214 34.3803 27.3118 -36.5844 85.6442 -46.7961
LeftUpLeg  -12.799 10.8228 17.5601
LeftLeg  23.0958 8.11484 2.84529
LeftFoot  7.87905 -0.0813468 1.18118
LeftToes  -16.9076 2.60077e-006 -1.42232e-007
Spine  2.80855 1.10425 1.04526
Spine1  5.63506 2.15422 2.14079
RightShoulder  0.00189731 5.58791 -0.232251
RightArm  50.0813 -27.0276 40.9498
RightForeArm  75.3733 74.9292 41.2474
RightHand  -4.53846 11.5734 -42.3641
LeftShoulder1  0.00652443 -2.10414 -6.81917
LeftArm  54.3608 24.1392 -37.2083
LeftForeArm  82.4326 -74.5627 -39.9134
LeftHand  -7.6949 -15.0111 53.7346
HEad  -15.7044 9.99852 -10.543
RightUpLeg  -13.4634 -19.3173 2.79613
RightLeg  7.49457 -0.858526 -0.0557432
RightFoot  4.55524 0.0176829 -0.0753219
RightToes  -32.9066 -0.16444 -0.271651
696
root  -6.99637 34.2599 26.7622 -64.2377 85.7112 -75.1068
LeftUpLeg  -9.59793 8.234 18.071
LeftLeg  17.0961 10.1093 2.39518
LeftFoot  9.88248 -0.154814 1.79052
LeftToes  -32.745 2.60077e-006 -1.42232e-007
Spine  2.58926 1.24239 1.47106
Spine1  5.2049 2.40968 2.98566
RightShoulder  0.00682824 5.3952 -0.0605789
RightArm  49.7533 -27.8562 40.2494
RightForeArm  74.6181 74.9402 41.2913
RightHand  -4.5104 11.6152 -41.9829
LeftShoulder1  0.00652443 -1.68141 -7.36818
LeftArm  52.4228 25.0165 -38.4831
LeftForeArm  80.4161 -73.5853 -36.9528
LeftHand  -7.75329 -14.8599 54.5664
HEad  -15.0423 8.52795 -10.4189
RightUpLeg  -14.5306 -20.3655 3.25792
RightLeg  7.70641 -1.51082 -0.10474
RightFoot  5.10448 0.0232667 -0.144401
RightToes  -34.4123 -0.175454 -0.281433
697
root  -7.23652 34.1926 26.1648 -91.5874 85.2148 -102.731
LeftUpLeg  -7.25706 6.86317 17.4534
LeftLeg  11.5852 12.2481 1.68559
LeftFoot  9.65294 -0.176484 2.08988
LeftToes  -35.5442 2.60077e-006 -1.42232e-007
Spine  2.51636 1.29038 1.8386
Spine1  5.06648 2.48695 3.71676
RightShoulder  0.00970672 5.42698 0.108293
RightArm  49.3543 -28.5017 39.7261
RightForeArm  74.3971 74.8318 40.9129
RightHand  -4.50997 11.4036 -42.699
LeftShoulder1  0.00652443 -1.92687 -7.36513
LeftArm  50.6165 26.2621 -39.5869
LeftForeArm  79.5448 -72.9531 -35.2657
LeftHand  -7.81377 -14.8882 54.842
HEad  -14.4263 6.94871 -10.4166
RightUpLeg  -14.8399 -20.2408 2.86933
RightLeg  7.33421 -3.72873 -0.235951
RightFoot  6.3682 0.0447913 -0.42755
RightToes  -36.3559 -0.190046 -0.293625
698
root  -7.50538 34.1614 25.4768 -115.866 84.3713 -127.013
LeftUpLeg  -5.89367 7.51325 15.7222
LeftLeg  6.51444 13.3437 0.653525
LeftFoot  8.71209 -0.155948 2.04703
LeftToes  -31.2288 2.60077e-006 -1.42232e-007
Spine  2.5066 1.21795 1.97819
Spine1  5.04921 2.33849 3.99587
RightShoulder  0.0104699 5.39563 -0.0771579
RightArm  48.6293 -28.8228 40.0137
RightForeArm  74.2999 74.5669 40.0154
RightHand  -4.57961 11.4277 -43.2184
LeftShoulder1  0.00652443 -2.43543 -6.91852
LeftArm  50.1001 27.1824 -39.9424
LeftForeArm  79.5369 -73.0107 -35.4134
LeftHand  -7.8527 -15.1034 54.3945
HEad  -14.1404 5.30674 -9.88196
RightUpLeg  -14.6687 -19.5983 1.40922
RightLeg  6.72942 -6.79783 -0.358385
RightFoot  8.07019 0.0953815 -0.974419
RightToes  -38.684 -0.208057 -0.307568
